<svg xmlns="http://www.w3.org/2000/svg" version="1.1" xmlns:xlink="http://www.w3.org/1999/xlink" xmlns:svgjs="http://svgjs.dev/svgjs" width="1000" height="1000" viewBox="0 0 1000 1000"><rect width="1000" height="1000" fill="#102e44"></rect><g transform="matrix(0.7,0,0,0.7,150.43799488111154,277.58024327448254)"><svg viewBox="0 0 388 247" data-background-color="#102e44" preserveAspectRatio="xMidYMid meet" height="636" width="1000" xmlns="http://www.w3.org/2000/svg" xmlns:xlink="http://www.w3.org/1999/xlink"><g id="tight-bounds" transform="matrix(1,0,0,1,-0.24277418989723287,-0.09999980054539037)"><svg viewBox="0 0 388.48552887633235 247.2" height="247.2" width="388.48552887633235"><g><svg viewBox="0 0 395.5199999999999 251.67615453476566" height="247.2" width="388.48552887633235"><g transform="matrix(1,0,0,1,0,155.5459602490514)"><svg viewBox="0 0 395.5199999999999 96.13019428571427" height="96.13019428571427" width="395.5199999999999"><g><svg viewBox="0 0 395.5199999999999 96.13019428571427" height="96.13019428571427" width="395.5199999999999"><g><svg viewBox="0 0 395.5199999999999 96.13019428571427" height="96.13019428571427" width="395.5199999999999"><g transform="matrix(1,0,0,1,0,0)"><svg width="395.5199999999999" viewBox="2.690000057220459 -36.060001373291016 192.239990234375 46.730003356933594" height="96.13019428571427" data-palette-color="#ffffff"><path d="M24.73-21.44L24.73-15.06 11.25-15.06 11.25-6.59 27.17-6.59 27.17 0 2.69 0 2.69-35.55 27.22-35.55 27.22-28.93 11.25-28.93 11.25-21.44 24.73-21.44ZM30.66-35.55L41.92-35.55 49.85-10.82 57.76-35.55 69.04-35.55 69.04 0 60.45 0 60.45-8.3 61.28-25.29 52.68 0 47.02 0 38.4-25.32 39.23-8.3 39.23 0 30.66 0 30.66-35.55ZM90.18-18.51L90.18-12.13 75.51-12.13 75.51-18.51 90.18-18.51ZM126.07-18.99L126.07-4.39Q124.09-2.2 120.28-0.85 116.47 0.49 111.93 0.49L111.93 0.49Q104.95 0.49 100.77-3.78 96.6-8.06 96.31-15.67L96.31-15.67 96.28-18.75Q96.28-24 98.14-27.92 99.99-31.84 103.45-33.95 106.9-36.06 111.44-36.06L111.44-36.06Q118.08-36.06 121.76-33.02 125.43-29.98 126.04-23.95L126.04-23.95 117.79-23.95Q117.35-26.93 115.89-28.2 114.42-29.47 111.74-29.47L111.74-29.47Q108.51-29.47 106.76-26.73 105-24 104.97-18.92L104.97-18.92 104.97-16.77Q104.97-11.45 106.79-8.78 108.61-6.1 112.52-6.1L112.52-6.1Q115.86-6.1 117.5-7.59L117.5-7.59 117.5-13.11 111.54-13.11 111.54-18.99 126.07-18.99ZM137.05-26.42L141.23-11.52 145.62-26.42 154.43-26.42 143.67 4.42 143.2 5.54Q140.91 10.67 135.1 10.67L135.1 10.67Q133.49 10.67 131.7 10.18L131.7 10.18 131.7 4.3 132.78 4.3Q134.51 4.3 135.43 3.8 136.34 3.3 136.78 2L136.78 2 137.44 0.24 128.26-26.42 137.05-26.42ZM156.63-26.42L164.34-26.42 164.61-23.32Q167.42-26.9 172.16-26.9L172.16-26.9Q177.16-26.9 178.92-22.92L178.92-22.92Q181.6-26.9 186.68-26.9L186.68-26.9Q194.71-26.9 194.93-17.19L194.93-17.19 194.93 0 186.68 0 186.68-16.67Q186.68-18.7 186-19.63 185.31-20.56 183.51-20.56L183.51-20.56Q181.07-20.56 179.87-18.38L179.87-18.38 179.89-18.04 179.89 0 171.64 0 171.64-16.63Q171.64-18.7 170.98-19.63 170.32-20.56 168.47-20.56L168.47-20.56Q166.1-20.56 164.86-18.38L164.86-18.38 164.86 0 156.63 0 156.63-26.42Z" opacity="1" transform="matrix(1,0,0,1,0,0)" fill="#ffffff" class="undefined-text-0" data-fill-palette-color="primary" id="text-0"></path></svg></g></svg></g></svg></g></svg></g><g transform="matrix(1,0,0,1,131.33237948966175,0)"><svg viewBox="0 0 132.85524102067643 132.85192850285713" height="132.85192850285713" width="132.85524102067643"><g><svg xmlns="http://www.w3.org/2000/svg" xmlns:xlink="http://www.w3.org/1999/xlink" version="1.1" x="0" y="0" viewBox="9.951000213623047 9.944000244140625 79.86399841308594 79.86200714111328" enable-background="new 0 0 100 100" xml:space="preserve" height="132.85192850285713" width="132.85524102067643" class="icon-icon-0" data-fill-palette-color="accent" id="icon-0"><path fill="none" d="M50.857 78.341l1.237-56.924c0-1.408-1.069-2.053-2.062-2.053-0.993 0-2.062 0.645-2.062 2.062l1.237 55.669v1.247c0 1.138 0.425 1.753 0.825 1.753C50.432 80.094 50.857 79.48 50.857 78.341z"></path><path d="M63.193 36.565V9.944h-26.62v26.62H9.951v26.62h26.622v26.622h26.62V63.185h26.622v-26.62H63.193zM48.557 63.418l-0.171-7.706c0.508-1.284 1.508-2.058 2.663-2.82l-0.17 7.846c-0.276 0.789-0.72 1.479-1.439 2.06C49.126 62.995 48.835 63.203 48.557 63.418zM53.511 50.057c-0.724 0.724-1.577 1.275-2.401 1.809-1.765 1.142-3.585 2.321-3.868 5.126-1.599-1.398-1.688-3.683-1.688-4.168 0-1.309 1.418-2.341 2.919-3.435 1.918-1.397 4.092-2.98 4.092-5.639v-4.037c1.722 1.636 2.712 3.576 2.811 5.539C55.466 47.058 54.803 48.765 53.511 50.057zM51.205 45.684c-0.651 1.122-1.809 2.009-2.978 2.864l-0.41-18.415c0.226-0.073 0.456-0.144 0.686-0.213 1.25-0.375 2.635-0.791 3.085-1.876L51.205 45.684zM48.267 29.129c-1.326 0.397-2.696 0.807-3.167 1.944-0.321 0.775-0.157 1.748 0.513 2.99l1.179 1.964v4.346c-3.385-3.157-4.88-8.24-3.335-11.716l0.018-0.049c0.619-2.064 2.894-3.143 4.821-3.143 1.209 0 2.62 0.468 2.62 1.787C50.915 28.263 49.915 28.636 48.267 29.129zM47.621 71.868c-0.921-1.301-1.296-2.603-1.116-3.883 0.237-1.683 1.441-3.282 3.392-4.501l0.039-0.027c1.962-1.57 2.187-3.769 2.214-6.322 1.291 1.531 1.449 3.136 1.327 4.279-0.219 2.044-1.526 4.13-3.158 5.064C47.946 67.664 47.657 69.233 47.621 71.868zM52.325 76.213c-0.227 0.856-0.811 1.72-1.581 2.046 0.547-1.482 0.902-2.918 0.98-4.819C52.487 74.225 52.558 75.335 52.325 76.213zM49.678 19.005c0.993 0 2.062 0.645 2.062 2.053l-0.119 5.451c-0.373-1.141-1.614-1.867-3.326-1.867-0.197 0-0.397 0.014-0.599 0.034l-0.08-3.608C47.616 19.65 48.685 19.005 49.678 19.005zM49.678 79.735c-0.4 0-0.825-0.614-0.825-1.753v-1.247l-0.162-7.311c0.27-0.966 0.833-1.627 2.017-2.22 0.01-0.006 0.02-0.013 0.03-0.019l-0.193 8.9c-0.204 0.869-0.324 1.159-0.676 2.04 0 0-0.221 0.79-0.063 0.964 0.158 0.174 0.286 0.129 0.286 0.129 0.064 0 0.126-0.015 0.189-0.02C50.12 79.55 49.896 79.735 49.678 79.735z" fill="#b2fcfb" data-fill-palette-color="accent"></path><path d="M49.619 27.612C52.506 26.375 46.732 26.375 49.619 27.612z" fill="#b2fcfb" data-fill-palette-color="accent"></path></svg></g></svg></g><g></g></svg></g><defs></defs></svg><rect width="388.48552887633235" height="247.2" fill="none" stroke="none" visibility="hidden"></rect></g></svg></g></svg>